<svg viewBox="0 0 79 69" fill="none" xmlns="http://www.w3.org/2000/svg">
<path d="M5.82386 58V11.4545H33.733V16.4545H11.4602V32.1818H31.642V37.1818H11.4602V58H5.82386ZM46.1136 11.4545L58.1136 30.8182H58.4773L70.4773 11.4545H77.1136L62.4773 34.7273L77.1136 58H70.4773L58.4773 39H58.1136L46.1136 58H39.4773L54.4773 34.7273L39.4773 11.4545H46.1136Z" fill="black"/>
<path d="M5.82386 58H3.82386V60H5.82386V58ZM5.82386 11.4545V9.45454H3.82386V11.4545H5.82386ZM33.733 11.4545H35.733V9.45454H33.733V11.4545ZM33.733 16.4545V18.4545H35.733V16.4545H33.733ZM11.4602 16.4545V14.4545H9.46023V16.4545H11.4602ZM11.4602 32.1818H9.46023V34.1818H11.4602V32.1818ZM31.642 32.1818H33.642V30.1818H31.642V32.1818ZM31.642 37.1818V39.1818H33.642V37.1818H31.642ZM11.4602 37.1818V35.1818H9.46023V37.1818H11.4602ZM11.4602 58V60H13.4602V58H11.4602ZM7.82386 58V11.4545H3.82386V58H7.82386ZM5.82386 13.4545H33.733V9.45454H5.82386V13.4545ZM31.733 11.4545V16.4545H35.733V11.4545H31.733ZM33.733 14.4545H11.4602V18.4545H33.733V14.4545ZM9.46023 16.4545V32.1818H13.4602V16.4545H9.46023ZM11.4602 34.1818H31.642V30.1818H11.4602V34.1818ZM29.642 32.1818V37.1818H33.642V32.1818H29.642ZM31.642 35.1818H11.4602V39.1818H31.642V35.1818ZM9.46023 37.1818V58H13.4602V37.1818H9.46023ZM11.4602 56H5.82386V60H11.4602V56ZM46.1136 11.4545L47.8137 10.401L47.2271 9.45454H46.1136V11.4545ZM58.1136 30.8182L56.4136 31.8717L57.0002 32.8182H58.1136V30.8182ZM58.4773 30.8182V32.8182H59.5908L60.1773 31.8717L58.4773 30.8182ZM70.4773 11.4545V9.45454H69.3638L68.7773 10.401L70.4773 11.4545ZM77.1136 11.4545L78.8067 12.5193L80.7341 9.45454H77.1136V11.4545ZM62.4773 34.7273L60.7843 33.6625L60.1146 34.7273L60.7843 35.792L62.4773 34.7273ZM77.1136 58V60H80.7341L78.8067 56.9353L77.1136 58ZM70.4773 58L68.7863 59.068L69.3749 60H70.4773V58ZM58.4773 39L60.1683 37.932L59.5796 37H58.4773V39ZM58.1136 39V37H57.0113L56.4227 37.932L58.1136 39ZM46.1136 58V60H47.216L47.8046 59.068L46.1136 58ZM39.4773 58L37.7962 56.9165L35.8088 60H39.4773V58ZM54.4773 34.7273L56.1583 35.8108L56.8567 34.7273L56.1583 33.6438L54.4773 34.7273ZM39.4773 11.4545V9.45454H35.8088L37.7962 12.538L39.4773 11.4545ZM44.4136 12.5081L56.4136 31.8717L59.8137 29.7646L47.8137 10.401L44.4136 12.5081ZM58.1136 32.8182H58.4773V28.8182H58.1136V32.8182ZM60.1773 31.8717L72.1773 12.5081L68.7773 10.401L56.7773 29.7646L60.1773 31.8717ZM70.4773 13.4545H77.1136V9.45454H70.4773V13.4545ZM75.4206 10.3898L60.7843 33.6625L64.1703 35.792L78.8067 12.5193L75.4206 10.3898ZM60.7843 35.792L75.4206 59.0647L78.8067 56.9353L64.1703 33.6625L60.7843 35.792ZM77.1136 56H70.4773V60H77.1136V56ZM72.1682 56.932L60.1683 37.932L56.7863 40.068L68.7863 59.068L72.1682 56.932ZM58.4773 37H58.1136V41H58.4773V37ZM56.4227 37.932L44.4227 56.932L47.8046 59.068L59.8046 40.068L56.4227 37.932ZM46.1136 56H39.4773V60H46.1136V56ZM41.1583 59.0835L56.1583 35.8108L52.7962 33.6438L37.7962 56.9165L41.1583 59.0835ZM56.1583 33.6438L41.1583 10.371L37.7962 12.538L52.7962 35.8108L56.1583 33.6438ZM39.4773 13.4545H46.1136V9.45454H39.4773V13.4545Z" fill="black"/>
</svg>
