<svg  viewBox="0 0 79 70" fill="none" xmlns="http://www.w3.org/2000/svg">
<path d="M5.82386 59V12.4545H33.733V17.4545H11.4602V33.1818H31.642V38.1818H11.4602V59H5.82386ZM46.1136 12.4545L58.1136 31.8182H58.4773L70.4773 12.4545H77.1136L62.4773 35.7273L77.1136 59H70.4773L58.4773 40H58.1136L46.1136 59H39.4773L54.4773 35.7273L39.4773 12.4545H46.1136Z" fill="black"/>
<path d="M5.82386 59H3.82386V61H5.82386V59ZM5.82386 12.4545V10.4545H3.82386V12.4545H5.82386ZM33.733 12.4545H35.733V10.4545H33.733V12.4545ZM33.733 17.4545V19.4545H35.733V17.4545H33.733ZM11.4602 17.4545V15.4545H9.46023V17.4545H11.4602ZM11.4602 33.1818H9.46023V35.1818H11.4602V33.1818ZM31.642 33.1818H33.642V31.1818H31.642V33.1818ZM31.642 38.1818V40.1818H33.642V38.1818H31.642ZM11.4602 38.1818V36.1818H9.46023V38.1818H11.4602ZM11.4602 59V61H13.4602V59H11.4602ZM7.82386 59V12.4545H3.82386V59H7.82386ZM5.82386 14.4545H33.733V10.4545H5.82386V14.4545ZM31.733 12.4545V17.4545H35.733V12.4545H31.733ZM33.733 15.4545H11.4602V19.4545H33.733V15.4545ZM9.46023 17.4545V33.1818H13.4602V17.4545H9.46023ZM11.4602 35.1818H31.642V31.1818H11.4602V35.1818ZM29.642 33.1818V38.1818H33.642V33.1818H29.642ZM31.642 36.1818H11.4602V40.1818H31.642V36.1818ZM9.46023 38.1818V59H13.4602V38.1818H9.46023ZM11.4602 57H5.82386V61H11.4602V57ZM46.1136 12.4545L47.8137 11.401L47.2271 10.4545H46.1136V12.4545ZM58.1136 31.8182L56.4136 32.8717L57.0002 33.8182H58.1136V31.8182ZM58.4773 31.8182V33.8182H59.5908L60.1773 32.8717L58.4773 31.8182ZM70.4773 12.4545V10.4545H69.3638L68.7773 11.401L70.4773 12.4545ZM77.1136 12.4545L78.8067 13.5193L80.7341 10.4545H77.1136V12.4545ZM62.4773 35.7273L60.7843 34.6625L60.1146 35.7273L60.7843 36.792L62.4773 35.7273ZM77.1136 59V61H80.7341L78.8067 57.9353L77.1136 59ZM70.4773 59L68.7863 60.068L69.3749 61H70.4773V59ZM58.4773 40L60.1683 38.932L59.5796 38H58.4773V40ZM58.1136 40V38H57.0113L56.4227 38.932L58.1136 40ZM46.1136 59V61H47.216L47.8046 60.068L46.1136 59ZM39.4773 59L37.7962 57.9165L35.8088 61H39.4773V59ZM54.4773 35.7273L56.1583 36.8108L56.8567 35.7273L56.1583 34.6438L54.4773 35.7273ZM39.4773 12.4545V10.4545H35.8088L37.7962 13.538L39.4773 12.4545ZM44.4136 13.5081L56.4136 32.8717L59.8137 30.7646L47.8137 11.401L44.4136 13.5081ZM58.1136 33.8182H58.4773V29.8182H58.1136V33.8182ZM60.1773 32.8717L72.1773 13.5081L68.7773 11.401L56.7773 30.7646L60.1773 32.8717ZM70.4773 14.4545H77.1136V10.4545H70.4773V14.4545ZM75.4206 11.3898L60.7843 34.6625L64.1703 36.792L78.8067 13.5193L75.4206 11.3898ZM60.7843 36.792L75.4206 60.0647L78.8067 57.9353L64.1703 34.6625L60.7843 36.792ZM77.1136 57H70.4773V61H77.1136V57ZM72.1682 57.932L60.1683 38.932L56.7863 41.068L68.7863 60.068L72.1682 57.932ZM58.4773 38H58.1136V42H58.4773V38ZM56.4227 38.932L44.4227 57.932L47.8046 60.068L59.8046 41.068L56.4227 38.932ZM46.1136 57H39.4773V61H46.1136V57ZM41.1583 60.0835L56.1583 36.8108L52.7962 34.6438L37.7962 57.9165L41.1583 60.0835ZM56.1583 34.6438L41.1583 11.371L37.7962 13.538L52.7962 36.8108L56.1583 34.6438ZM39.4773 14.4545H46.1136V10.4545H39.4773V14.4545Z" fill="black"/>
<rect x="15.3946" y="1.36356" width="80.428" height="10" rx="2" transform="rotate(45 15.3946 1.36356)" fill="#F13636"/>
<rect x="71.8007" y="8.01479" width="80.428" height="10" rx="2" transform="rotate(135 71.8007 8.01479)" fill="#F13636"/>
</svg>
