<svg  viewBox="0 0 85 85" fill="none" xmlns="http://www.w3.org/2000/svg">
<circle cx="42.0478" cy="42.9521" r="29.3883" fill="#EBBE1F"/>
<path d="M41.5568 2.67761C41.8704 1.78727 43.1296 1.78726 43.4432 2.67761L48.4827 16.9843C48.7163 17.6472 49.5429 17.8687 50.0767 17.4114L61.5944 7.5412C62.3111 6.92696 63.4016 7.55652 63.228 8.48439L60.4391 23.3941C60.3098 24.085 60.915 24.6902 61.6059 24.5609L76.5156 21.772C77.4435 21.5984 78.073 22.6889 77.4588 23.4056L67.5887 34.9233C67.1313 35.4571 67.3528 36.2837 68.0157 36.5173L82.3224 41.5568C83.2127 41.8704 83.2127 43.1296 82.3224 43.4432L68.0157 48.4827C67.3528 48.7163 67.1313 49.5429 67.5886 50.0767L77.4588 61.5944C78.073 62.3111 77.4435 63.4016 76.5156 63.228L61.6059 60.4391C60.915 60.3098 60.3098 60.915 60.4391 61.6059L63.228 76.5156C63.4016 77.4435 62.3111 78.073 61.5944 77.4588L50.0767 67.5887C49.5429 67.1313 48.7163 67.3528 48.4827 68.0157L43.4432 82.3224C43.1296 83.2127 41.8704 83.2127 41.5568 82.3224L36.5173 68.0157C36.2837 67.3528 35.4571 67.1313 34.9233 67.5886L23.4056 77.4588C22.6889 78.073 21.5984 77.4435 21.772 76.5156L24.5609 61.6059C24.6902 60.915 24.085 60.3098 23.3941 60.4391L8.4844 63.228C7.55652 63.4016 6.92695 62.3111 7.5412 61.5944L17.4114 50.0767C17.8687 49.5429 17.6473 48.7163 16.9843 48.4827L2.67761 43.4432C1.78727 43.1296 1.78726 41.8704 2.67761 41.5568L16.9843 36.5173C17.6472 36.2837 17.8687 35.4571 17.4114 34.9233L7.5412 23.4056C6.92696 22.6889 7.55652 21.5984 8.48439 21.772L23.3941 24.5609C24.085 24.6902 24.6902 24.085 24.5609 23.3941L21.772 8.4844C21.5984 7.55652 22.6889 6.92695 23.4056 7.5412L34.9233 17.4114C35.4571 17.8687 36.2837 17.6473 36.5173 16.9843L41.5568 2.67761Z" fill="#EBBE1F"/>
</svg>
