<svg  viewBox="0 0 72 71" fill="none" xmlns="http://www.w3.org/2000/svg">
<circle cx="35.5" cy="35.5" r="21.5" stroke="black" stroke-width="10"/>
<path d="M28 3C28 1.34315 29.3431 0 31 0H40C41.6569 0 43 1.34315 43 3V16C43 17.6569 41.6569 19 40 19H31C29.3431 19 28 17.6569 28 16V3Z" fill="black"/>
<rect x="28" width="15" height="19" rx="5" fill="black"/>
<path d="M53.3137 7.12132C54.4853 5.94975 56.3848 5.94975 57.5564 7.12132L63.9203 13.4853C65.0919 14.6569 65.0919 16.5564 63.9203 17.7279L54.7279 26.9203C53.5564 28.0919 51.6569 28.0919 50.4853 26.9203L44.1213 20.5564C42.9498 19.3848 42.9498 17.4853 44.1213 16.3137L53.3137 7.12132Z" fill="black"/>
<rect x="55.435" y="5" width="15" height="19" rx="5" transform="rotate(45 55.435 5)" fill="black"/>
<path d="M7.12132 16.7279C5.94975 15.5563 5.94975 13.6569 7.12132 12.4853L13.4853 6.12131C14.6569 4.94974 16.5564 4.94974 17.7279 6.12131L26.9203 15.3137C28.0919 16.4853 28.0919 18.3848 26.9203 19.5563L20.5564 25.9203C19.3848 27.0919 17.4853 27.0919 16.3137 25.9203L7.12132 16.7279Z" fill="black"/>
<rect x="5" y="14.6066" width="15" height="19" rx="5" transform="rotate(-45 5 14.6066)" fill="black"/>
<path d="M43 68C43 69.6569 41.6569 71 40 71H31C29.3431 71 28 69.6569 28 68V55C28 53.3431 29.3431 52 31 52H40C41.6569 52 43 53.3431 43 55V68Z" fill="black"/>
<rect x="43" y="71" width="15" height="19" rx="5" transform="rotate(-180 43 71)" fill="black"/>
<path d="M63.9203 53.3137C65.0919 54.4853 65.0919 56.3848 63.9203 57.5563L57.5564 63.9203C56.3848 65.0919 54.4853 65.0919 53.3137 63.9203L44.1213 54.7279C42.9498 53.5563 42.9498 51.6569 44.1213 50.4853L50.4853 44.1213C51.6569 42.9497 53.5564 42.9497 54.7279 44.1213L63.9203 53.3137Z" fill="black"/>
<rect x="66.0416" y="55.435" width="15" height="19" rx="5" transform="rotate(135 66.0416 55.435)" fill="black"/>
<path d="M56 43C54.3431 43 53 41.6569 53 40V31C53 29.3431 54.3431 28 56 28H69C70.6569 28 72 29.3431 72 31V40C72 41.6569 70.6569 43 69 43H56Z" fill="black"/>
<rect x="53" y="43" width="15" height="19" rx="5" transform="rotate(-90 53 43)" fill="black"/>
<path d="M16 28C17.6569 28 19 29.3431 19 31V40C19 41.6569 17.6569 43 16 43H3C1.34315 43 0 41.6569 0 40V31C0 29.3431 1.34315 28 3 28H16Z" fill="black"/>
<rect x="19" y="28" width="15" height="19" rx="5" transform="rotate(90 19 28)" fill="black"/>
<path d="M16.3294 44.104C17.501 42.9324 19.4005 42.9324 20.5721 44.104L26.936 50.4679C28.1076 51.6395 28.1076 53.539 26.936 54.7106L17.7437 63.9029C16.5721 65.0745 14.6726 65.0745 13.501 63.9029L7.13705 57.539C5.96548 56.3674 5.96548 54.4679 7.13705 53.2963L16.3294 44.104Z" fill="black"/>
<rect x="18.4508" y="41.9826" width="15" height="19" rx="5" transform="rotate(45 18.4508 41.9826)" fill="black"/>
</svg>
